<svg xmlns="http://www.w3.org/2000/svg" xmlns:xlink="http://www.w3.org/1999/xlink" width="500" zoomAndPan="magnify" viewBox="0 0 375 374.999991" height="500" preserveAspectRatio="xMidYMid meet" version="1.0"><defs><clipPath id="81bef45158"><path d="M 11.589844 0 L 363 0 L 363 178 L 11.589844 178 Z M 11.589844 0 " clip-rule="nonzero"/></clipPath><clipPath id="dd15d57fa3"><path d="M 11.589844 166 L 363 166 L 363 276 L 11.589844 276 Z M 11.589844 166 " clip-rule="nonzero"/></clipPath><clipPath id="c57a22b077"><path d="M 11.589844 264 L 363 264 L 363 375 L 11.589844 375 Z M 11.589844 264 " clip-rule="nonzero"/></clipPath></defs><rect x="-37.5" width="450" fill="#ffffff" y="-37.499999" height="449.999989" fill-opacity="1"/><rect x="-37.5" width="450" fill="#ffffff" y="-37.499999" height="449.999989" fill-opacity="1"/><rect x="-37.5" width="450" fill="#ffffff" y="-37.499999" height="449.999989" fill-opacity="1"/><g clip-path="url(#81bef45158)"><path fill="#0795ff" d="M 15.351562 95.589844 L 183.941406 176.765625 C 184.933594 177.238281 185.976562 177.472656 187.074219 177.472656 C 188.171875 177.472656 189.214844 177.238281 190.207031 176.765625 L 358.796875 95.589844 C 359.398438 95.292969 359.949219 94.917969 360.449219 94.46875 C 360.945312 94.015625 361.375 93.503906 361.730469 92.933594 C 362.082031 92.359375 362.351562 91.753906 362.539062 91.105469 C 362.722656 90.457031 362.816406 89.800781 362.816406 89.125 C 362.816406 88.453125 362.722656 87.792969 362.539062 87.148438 C 362.351562 86.5 362.082031 85.890625 361.726562 85.320312 C 361.375 84.75 360.945312 84.238281 360.449219 83.785156 C 359.949219 83.335938 359.398438 82.960938 358.796875 82.664062 L 190.207031 1.488281 C 189.214844 1.015625 188.171875 0.78125 187.074219 0.78125 C 185.976562 0.78125 184.933594 1.015625 183.941406 1.488281 L 15.351562 82.664062 C 14.75 82.960938 14.199219 83.335938 13.699219 83.785156 C 13.203125 84.238281 12.773438 84.75 12.417969 85.320312 C 12.066406 85.890625 11.796875 86.5 11.609375 87.148438 C 11.425781 87.792969 11.332031 88.453125 11.332031 89.125 C 11.332031 89.800781 11.425781 90.457031 11.609375 91.105469 C 11.796875 91.753906 12.066406 92.359375 12.417969 92.933594 C 12.773438 93.503906 13.203125 94.015625 13.699219 94.46875 C 14.199219 94.917969 14.75 95.292969 15.351562 95.589844 Z M 15.351562 95.589844 " fill-opacity="1" fill-rule="nonzero"/></g><g clip-path="url(#dd15d57fa3)"><path fill="#156cdd" d="M 15.351562 194.160156 L 183.941406 275.179688 C 184.933594 275.648438 185.976562 275.886719 187.074219 275.886719 C 188.171875 275.886719 189.214844 275.648438 190.207031 275.179688 L 358.796875 194.160156 C 359.402344 193.867188 359.953125 193.5 360.457031 193.050781 C 360.957031 192.605469 361.382812 192.097656 361.742188 191.53125 C 362.097656 190.960938 362.371094 190.355469 362.554688 189.710938 C 362.742188 189.0625 362.835938 188.40625 362.835938 187.734375 C 362.835938 187.0625 362.742188 186.40625 362.554688 185.761719 C 362.371094 185.117188 362.097656 184.507812 361.742188 183.941406 C 361.382812 183.371094 360.957031 182.863281 360.457031 182.417969 C 359.953125 181.96875 359.402344 181.601562 358.796875 181.308594 L 332.003906 168.304688 C 330.640625 167.625 329.21875 167.113281 327.738281 166.765625 C 326.253906 166.417969 324.753906 166.246094 323.230469 166.246094 C 321.707031 166.246094 320.207031 166.417969 318.722656 166.765625 C 317.242188 167.113281 315.820312 167.625 314.457031 168.304688 L 210.578125 218.449219 C 208.773438 219.3125 206.925781 220.070312 205.035156 220.726562 C 203.144531 221.382812 201.226562 221.929688 199.277344 222.371094 C 197.324219 222.816406 195.355469 223.148438 193.367188 223.367188 C 191.382812 223.589844 189.386719 223.703125 187.386719 223.703125 C 185.386719 223.703125 183.394531 223.589844 181.40625 223.367188 C 179.417969 223.148438 177.449219 222.816406 175.5 222.371094 C 173.550781 221.929688 171.628906 221.382812 169.738281 220.726562 C 167.851562 220.070312 166.003906 219.3125 164.199219 218.449219 L 59.769531 168.226562 C 58.394531 167.566406 56.960938 167.070312 55.476562 166.734375 C 53.988281 166.394531 52.480469 166.226562 50.957031 166.226562 C 49.433594 166.226562 47.925781 166.394531 46.4375 166.734375 C 44.953125 167.070312 43.519531 167.566406 42.144531 168.226562 L 15.351562 181.152344 C 14.746094 181.445312 14.195312 181.8125 13.691406 182.261719 C 13.191406 182.707031 12.765625 183.214844 12.40625 183.785156 C 12.050781 184.351562 11.777344 184.957031 11.59375 185.605469 C 11.40625 186.25 11.3125 186.90625 11.3125 187.578125 C 11.3125 188.25 11.40625 188.90625 11.59375 189.554688 C 11.777344 190.199219 12.050781 190.804688 12.40625 191.371094 C 12.765625 191.941406 13.191406 192.449219 13.691406 192.894531 C 14.195312 193.34375 14.746094 193.710938 15.351562 194.003906 Z M 15.351562 194.160156 " fill-opacity="1" fill-rule="nonzero"/></g><g clip-path="url(#c57a22b077)"><path fill="#156cdd" d="M 358.796875 279.644531 L 332.003906 266.714844 C 330.636719 266.058594 329.210938 265.5625 327.730469 265.226562 C 326.25 264.886719 324.75 264.71875 323.230469 264.71875 C 321.710938 264.71875 320.210938 264.886719 318.730469 265.226562 C 317.25 265.5625 315.824219 266.058594 314.457031 266.714844 L 210.578125 316.863281 C 208.777344 317.734375 206.929688 318.507812 205.042969 319.171875 C 203.15625 319.835938 201.234375 320.394531 199.285156 320.84375 C 197.332031 321.292969 195.363281 321.628906 193.375 321.855469 C 191.386719 322.078125 189.390625 322.191406 187.386719 322.191406 C 185.386719 322.191406 183.390625 322.078125 181.402344 321.855469 C 179.410156 321.628906 177.441406 321.292969 175.492188 320.84375 C 173.539062 320.394531 171.621094 319.835938 169.730469 319.171875 C 167.84375 318.507812 166 317.734375 164.199219 316.863281 L 60.082031 266.714844 C 58.707031 266.058594 57.277344 265.5625 55.789062 265.222656 C 54.300781 264.886719 52.796875 264.71875 51.269531 264.71875 C 49.746094 264.71875 48.238281 264.886719 46.753906 265.222656 C 45.265625 265.5625 43.832031 266.058594 42.457031 266.714844 L 15.664062 279.644531 C 15.058594 279.933594 14.507812 280.304688 14.007812 280.75 C 13.507812 281.199219 13.078125 281.707031 12.71875 282.273438 C 12.363281 282.84375 12.089844 283.449219 11.90625 284.09375 C 11.71875 284.738281 11.625 285.398438 11.625 286.070312 C 11.625 286.742188 11.71875 287.398438 11.90625 288.042969 C 12.089844 288.6875 12.363281 289.296875 12.71875 289.863281 C 13.078125 290.433594 13.507812 290.941406 14.007812 291.386719 C 14.507812 291.832031 15.058594 292.203125 15.664062 292.492188 L 183.941406 373.667969 C 184.933594 374.140625 185.976562 374.378906 187.074219 374.378906 C 188.171875 374.378906 189.214844 374.140625 190.207031 373.667969 L 358.796875 292.492188 C 359.402344 292.203125 359.953125 291.832031 360.453125 291.386719 C 360.957031 290.941406 361.382812 290.433594 361.742188 289.863281 C 362.097656 289.296875 362.371094 288.6875 362.554688 288.042969 C 362.742188 287.398438 362.835938 286.742188 362.835938 286.070312 C 362.835938 285.398438 362.742188 284.738281 362.554688 284.09375 C 362.371094 283.449219 362.097656 282.84375 361.742188 282.273438 C 361.382812 281.707031 360.957031 281.199219 360.457031 280.75 C 359.953125 280.304688 359.402344 279.933594 358.796875 279.644531 Z M 358.796875 279.644531 " fill-opacity="1" fill-rule="nonzero"/></g></svg>